####
#
# OBJ File Generated by Meshlab
#
####
# Object environment_Box_vis_1.obj
#
# Vertices: 16
# Faces: 28
#
####
vn -1.5707896 -1.5708884 1.5707105
v 0.1092993 0.2744114 -0.1918342
vn 1.5708027 -1.5708926 1.5706933
v -0.1093007 0.2744117 -0.1918330
vn -1.5707787 -4.7124815 1.5705051
v 0.1092986 -0.2793887 -0.1918674
vn 1.5708174 -4.7124853 1.5705223
v -0.1093014 -0.2793883 -0.1918662
vn 1.5707856 -1.5707040 -1.5708994
v -0.1092986 0.2743886 0.1918671
vn 1.5707970 -4.7122974 -1.5711048
v -0.1092993 -0.2794114 0.1918338
vn -1.5708073 -1.5706999 -1.5708823
v 0.1093014 0.2743883 0.1918659
vn -1.5708063 -4.7122936 -1.5710669
v 0.1093007 -0.2794117 0.1918326
vn -1.5708028 1.5708927 -1.5706934
v -0.1143007 0.2794120 -0.1968326
vn 1.5707896 1.5708884 -1.5707099
v 0.1142993 0.2794117 -0.1968339
vn -1.5708008 -1.5707005 -1.5708758
v -0.1143014 -0.2793881 -0.1968662
vn 1.5707909 -1.5707049 -1.5709046
v 0.1142986 -0.2793883 -0.1968674
vn -1.5707855 1.5707042 1.5708992
v -0.1142985 0.2793883 0.1968674
vn -1.5707846 -1.5708885 1.5707052
v -0.1142993 -0.2794117 0.1968339
vn 1.5708073 1.5706998 1.5708823
v 0.1143015 0.2793880 0.1968662
vn 1.5708041 -1.5708928 1.5706949
v 0.1143007 -0.2794120 0.1968326
# 16 vertices, 0 vertices normals

f 1//1 2//2 3//3
f 3//3 2//2 4//4
f 2//2 5//5 4//4
f 4//4 5//5 6//6
f 5//5 7//7 6//6
f 6//6 7//7 8//8
f 7//7 1//1 8//8
f 8//8 1//1 3//3
f 7//7 5//5 1//1
f 1//1 5//5 2//2
f 9//9 10//10 11//11
f 11//11 10//10 12//12
f 13//13 9//9 14//14
f 14//14 9//9 11//11
f 15//15 13//13 16//16
f 16//16 13//13 14//14
f 10//10 15//15 12//12
f 12//12 15//15 16//16
f 8//8 3//3 12//12
f 12//12 3//3 4//4
f 12//12 4//4 11//11
f 11//11 4//4 6//6
f 11//11 6//6 14//14
f 14//14 6//6 8//8
f 14//14 8//8 16//16
f 16//16 8//8 12//12
f 10//10 9//9 15//15
f 15//15 9//9 13//13
# 28 faces, 0 coords texture

# End of File
